# xmcd
#
# Track frame offsets:
# 150
# 11468
# 25598
# 29640
# 31453
# 35258
# 39620
# 43662
# 45475
# 49280
# 53740
# 67715
# 79531
# 89216
# 98830
# 107386
# 123916
# 148675
# 163257
# 175248
# 186101
# 196301
# 206779
#
# Disc length: 2899 seconds
#
# Revision: 0
# Processed by: cddbd v1.5.1PL2 Copyright (c) Steve Scherf et al.
# Submitted via: Audion 2.5.0 (http://www.panic.com/audion/)
#
DISCID=350b5117
DTITLE=dfg - fgt
DYEAR=1900
DGENRE=
TTITLE0=w
TTITLE1=x
TTITLE2=y
TTITLE3=z
TTITLE4=e
TTITLE5=f
TTITLE6=g
TTITLE7=h
TTITLE8=j
TTITLE9=k
TTITLE10=i
TTITLE11=l
TTITLE12=m
TTITLE13=n
TTITLE14=n
TTITLE15=o
TTITLE16=p
TTITLE17=q
TTITLE18=r
TTITLE19=s
TTITLE20=t
TTITLE21=u
TTITLE22=v
EXTD=
EXTT0=
EXTT1=
EXTT2=
EXTT3=
EXTT4=
EXTT5=
EXTT6=
EXTT7=
EXTT8=
EXTT9=
EXTT10=
EXTT11=
EXTT12=
EXTT13=
EXTT14=
EXTT15=
EXTT16=
EXTT17=
EXTT18=
EXTT19=
EXTT20=
EXTT21=
EXTT22=
PLAYORDER=
